StickNoBills-Regular.ufo
<glyph name="exclam" format="1">
  <advance width="210"/>
  <unicode hex="0021"/>
  <outline>
    <contour>
      <point x="30" y="53" type="curve" smooth="yes"/>
      <point x="30" y="95"/>
      <point x="63" y="129"/>
      <point x="105" y="129" type="curve" smooth="yes"/>
      <point x="147" y="129"/>
      <point x="180" y="95"/>
      <point x="180" y="53" type="curve" smooth="yes"/>
      <point x="180" y="11"/>
      <point x="147" y="-22"/>
      <point x="105" y="-22" type="curve" smooth="yes"/>
      <point x="63" y="-22"/>
      <point x="30" y="11"/>
    </contour>
    <contour>
      <point x="42" y="166" type="line"/>
      <point x="42" y="700" type="line"/>
      <point x="171" y="700" type="line"/>
      <point x="171" y="166" type="line"/>
    </contour>
  </outline>
</glyph>
<glyph name="quotedbl" format="1">
  <advance width="359"/>
  <unicode hex="0022"/>
  <outline>
    <contour>
      <point x="153" y="465" type="line"/>
      <point x="26" y="465" type="line"/>
      <point x="26" y="736" type="line"/>
      <point x="153" y="736" type="line"/>
    </contour>
    <contour>
      <point x="333" y="465" type="line"/>
      <point x="206" y="465" type="line"/>
      <point x="206" y="736" type="line"/>
      <point x="333" y="736" type="line"/>
    </contour>
  </outline>
</glyph>
<glyph name="numbersign" format="1">
  <advance width="788"/>
  <unicode hex="0023"/>
  <outline>
    <contour>
      <point x="285" y="22" type="line"/>
      <point x="164" y="22" type="line"/>
      <point x="191" y="176" type="line"/>
      <point x="51" y="176" type="line"/>
      <point x="76" y="297" type="line"/>
      <point x="213" y="297" type="line"/>
      <point x="231" y="404" type="line"/>
      <point x="85" y="404" type="line"/>
      <point x="107" y="525" type="line"/>
      <point x="253" y="525" type="line"/>
      <point x="280" y="682" type="line"/>
      <point x="401" y="682" type="line"/>
      <point x="373" y="524" type="line"/>
      <point x="479" y="524" type="line"/>
      <point x="506" y="682" type="line"/>
      <point x="627" y="682" type="line"/>
      <point x="599" y="524" type="line"/>
      <point x="737" y="524" type="line"/>
      <point x="718" y="403" type="line"/>
      <point x="578" y="404" type="line"/>
      <point x="559" y="296" type="line"/>
      <point x="702" y="296" type="line"/>
      <point x="684" y="175" type="line"/>
      <point x="538" y="176" type="line"/>
      <point x="511" y="22" type="line"/>
      <point x="391" y="22" type="line"/>
      <point x="417" y="176" type="line"/>
      <point x="312" y="176" type="line"/>
    </contour>
    <contour>
      <point x="457" y="404" type="line"/>
      <point x="352" y="404" type="line"/>
      <point x="333" y="297" type="line"/>
      <point x="439" y="296" type="line"/>
    </contour>
  </outline>
</glyph>
<glyph name="dollar" format="1">
  <advance width="501"/>
  <unicode hex="0024"/>
  <outline>
    <contour>
      <point x="268" y="428.099" type="line"/>
      <point x="293.603" y="417.794"/>
      <point x="320.405" y="407.489"/>
      <point x="343" y="394" type="curve" smooth="yes"/>
      <point x="404" y="358"/>
      <point x="471" y="311"/>
      <point x="471" y="209" type="curve" smooth="yes"/>
      <point x="471" y="121.861"/>
      <point x="414.508" y="43.0479"/>
      <point x="339.125" y="11.5371" type="curve"/>
      <point x="339.125" y="-47.4453" type="line"/>
      <point x="268.25" y="-47.4453" type="line"/>
      <point x="268.25" y="-3" type="line" smooth="yes"/>
      <point x="268.167" y="-3"/>
      <point x="268.083" y="-3"/>
      <point x="268" y="-3" type="curve" smooth="yes"/>
      <point x="268" y="127" type="line"/>
      <point x="292" y="130"/>
      <point x="330" y="150"/>
      <point x="330" y="203" type="curve" smooth="yes"/>
      <point x="330" y="240.5"/>
      <point x="302.75" y="263.25"/>
      <point x="268" y="280.25" type="curve"/>
    </contour>
    <contour>
      <point x="213.125" y="749.532" type="line"/>
      <point x="213.125" y="577.83" type="line"/>
      <point x="213" y="577.83" type="line"/>
      <point x="213" y="568" type="line"/>
      <point x="192" y="562"/>
      <point x="172" y="537"/>
      <point x="172" y="513" type="curve" smooth="yes"/>
      <point x="172" y="486.162"/>
      <point x="188.688" y="468.148"/>
      <point x="213" y="453.626" type="curve"/>
      <point x="213" y="302.461" type="line"/>
      <point x="194.244" y="309.248"/>
      <point x="176.075" y="315.714"/>
      <point x="161" y="323" type="curve" smooth="yes"/>
      <point x="90" y="357"/>
      <point x="38" y="403"/>
      <point x="38" y="508" type="curve" smooth="yes"/>
      <point x="38" y="599.052"/>
      <point x="91.207" y="652.773"/>
      <point x="142.25" y="679.282" type="curve"/>
      <point x="142.25" y="749.532" type="line"/>
    </contour>
    <contour>
      <point x="339.125" y="682.143" type="line"/>
      <point x="401.901" y="649.257"/>
      <point x="438.498" y="580.014"/>
      <point x="443" y="553" type="curve"/>
      <point x="313" y="510" type="line"/>
      <point x="308" y="557"/>
      <point x="268" y="568"/>
      <point x="268" y="568" type="curve"/>
      <point x="268" y="700" type="line"/>
      <point x="268.25" y="700" type="line"/>
      <point x="268.25" y="749.532" type="line"/>
      <point x="339.125" y="749.532" type="line"/>
    </contour>
    <contour>
      <point x="213.125" y="124.258" type="line"/>
      <point x="213.125" y="-47.4453" type="line"/>
      <point x="142.25" y="-47.4453" type="line"/>
      <point x="142.25" y="12.6777" type="line"/>
      <point x="73.5264" y="44.2373"/>
      <point x="30.7637" y="115.993"/>
      <point x="30" y="158" type="curve"/>
      <point x="157" y="203" type="line"/>
      <point x="159" y="147"/>
      <point x="213" y="127"/>
      <point x="213" y="127" type="curve"/>
      <point x="213" y="124.258" type="line"/>
    </contour>
  </outline>
</glyph>
<glyph name="parenleft" format="1">
  <advance width="330"/>
  <unicode hex="0028"/>
  <outline>
    <contour>
      <point x="229" y="746" type="curve"/>
      <point x="230" y="649" type="line"/>
      <point x="191" y="626"/>
      <point x="170" y="593"/>
      <point x="169" y="521" type="curve" smooth="yes"/>
      <point x="169" y="208" type="line" smooth="yes"/>
      <point x="169" y="206"/>
      <point x="169" y="204"/>
      <point x="169" y="202" type="curve" smooth="yes"/>
      <point x="169" y="104"/>
      <point x="194" y="73"/>
      <point x="229" y="51" type="curve"/>
      <point x="229" y="-47" type="line"/>
      <point x="87" y="9"/>
      <point x="50" y="93"/>
      <point x="50" y="189" type="curve"/>
      <point x="50" y="510" type="line"/>
      <point x="50" y="650"/>
      <point x="121" y="706"/>
    </contour>
  </outline>
</glyph>
<glyph name="parenright" format="1">
  <advance width="264"/>
  <unicode hex="0029"/>
  <outline>
    <contour>
      <point x="50" y="735" type="line"/>
      <point x="149" y="696"/>
      <point x="211" y="652"/>
      <point x="213" y="510" type="curve"/>
      <point x="213" y="189" type="line"/>
      <point x="212" y="93"/>
      <point x="192" y="22"/>
      <point x="50" y="-37" type="curve"/>
      <point x="50" y="51" type="line"/>
      <point x="85" y="73"/>
      <point x="110" y="104"/>
      <point x="110" y="202" type="curve" smooth="yes"/>
      <point x="110" y="204"/>
      <point x="110" y="206"/>
      <point x="110" y="208" type="curve" smooth="yes"/>
      <point x="110" y="521" type="line" smooth="yes"/>
      <point x="109" y="593"/>
      <point x="89" y="625"/>
      <point x="50" y="648" type="curve"/>
    </contour>
  </outline>
</glyph>
<glyph name="asterisk" format="1">
  <advance width="591"/>
  <unicode hex="002A"/>
  <outline>
    <contour>
      <point x="352" y="94" type="line"/>
      <point x="234" y="94" type="line"/>
      <point x="234" y="237" type="line"/>
      <point x="119" y="157" type="line"/>
      <point x="50" y="253" type="line"/>
      <point x="195" y="353" type="line"/>
      <point x="50" y="459" type="line"/>
      <point x="120" y="554" type="line"/>
      <point x="234" y="471" type="line"/>
      <point x="234" y="605" type="line"/>
      <point x="351" y="605" type="line"/>
      <point x="351" y="467" type="line"/>
      <point x="471" y="556" type="line"/>
      <point x="540" y="461" type="line"/>
      <point x="393" y="354" type="line"/>
      <point x="541" y="252" type="line"/>
      <point x="472" y="156" type="line"/>
      <point x="351" y="238" type="line"/>
    </contour>
  </outline>
</glyph>
<glyph name="plus" format="1">
  <advance width="575"/>
  <unicode hex="002B"/>
  <outline>
    <contour>
      <point x="475" y="357" type="line"/>
      <point x="475" y="230" type="line"/>
      <point x="350" y="230" type="line"/>
      <point x="350" y="87" type="line"/>
      <point x="223" y="87" type="line"/>
      <point x="223" y="230" type="line"/>
      <point x="100" y="230" type="line"/>
      <point x="100" y="357" type="line"/>
      <point x="223" y="357" type="line"/>
      <point x="223" y="498" type="line"/>
      <point x="350" y="498" type="line"/>
      <point x="350" y="357" type="line"/>
    </contour>
  </outline>
</glyph>
<glyph name="comma" format="1">
  <advance width="264"/>
  <unicode hex="002C"/>
  <outline>
    <contour>
      <point x="177" y="-23" type="line"/>
      <point x="50" y="-23" type="line"/>
      <point x="87" y="129" type="line"/>
      <point x="214" y="129" type="line"/>
    </contour>
  </outline>
</glyph>
<glyph name="period" format="1">
  <advance width="250"/>
  <unicode hex="002E"/>
  <outline>
    <contour>
      <point x="50" y="53" type="curve" smooth="yes"/>
      <point x="50" y="95"/>
      <point x="83" y="129"/>
      <point x="125" y="129" type="curve" smooth="yes"/>
      <point x="167" y="129"/>
      <point x="200" y="95"/>
      <point x="200" y="53" type="curve" smooth="yes"/>
      <point x="200" y="11"/>
      <point x="167" y="-22"/>
      <point x="125" y="-22" type="curve" smooth="yes"/>
      <point x="83" y="-22"/>
      <point x="50" y="11"/>
    </contour>
  </outline>
</glyph>
<glyph name="slash" format="1">
  <advance width="501"/>
  <unicode hex="002F"/>
  <outline>
    <contour>
      <point x="100" y="-23" type="line"/>
      <point x="275" y="716" type="line"/>
      <point x="401" y="716" type="line"/>
      <point x="227" y="-23" type="line"/>
    </contour>
  </outline>
</glyph>
<glyph name="zero" format="1">
  <advance width="486"/>
  <unicode hex="0030"/>
  <outline>
    <contour>
      <point x="213" y="698" type="curve"/>
      <point x="213" y="573" type="line"/>
      <point x="160" y="560"/>
      <point x="155" y="461"/>
      <point x="155" y="398" type="curve" smooth="yes"/>
      <point x="155" y="371"/>
      <point x="155" y="360"/>
      <point x="155" y="339" type="curve" smooth="yes"/>
      <point x="155" y="248"/>
      <point x="157" y="137"/>
      <point x="212" y="124" type="curve"/>
      <point x="212" y="0" type="line"/>
      <point x="146" y="3"/>
      <point x="26" y="53"/>
      <point x="26" y="353" type="curve" smooth="yes"/>
      <point x="26" y="609"/>
      <point x="124" y="693"/>
    </contour>
    <contour>
      <point x="273" y="698" type="line"/>
      <point x="362" y="693"/>
      <point x="460" y="610"/>
      <point x="460" y="353" type="curve" smooth="yes"/>
      <point x="460" y="53"/>
      <point x="340" y="3"/>
      <point x="274" y="0" type="curve"/>
      <point x="274" y="124" type="line"/>
      <point x="329" y="137"/>
      <point x="331" y="248"/>
      <point x="331" y="339" type="curve" smooth="yes"/>
      <point x="331" y="360"/>
      <point x="331" y="371"/>
      <point x="331" y="398" type="curve" smooth="yes"/>
      <point x="331" y="461"/>
      <point x="326" y="560"/>
      <point x="273" y="573" type="curve"/>
    </contour>
  </outline>
</glyph>
<glyph name="three" format="1">
  <advance width="574"/>
  <unicode hex="0033"/>
  <outline>
    <contour>
      <point x="167" y="537" type="curve"/>
      <point x="61" y="600" type="line"/>
      <point x="94" y="656"/>
      <point x="152" y="698"/>
      <point x="230" y="698" type="curve"/>
      <point x="230" y="572" type="line"/>
      <point x="201" y="570"/>
      <point x="181" y="558"/>
    </contour>
    <contour>
      <point x="289" y="122" type="line"/>
      <point x="332" y="122"/>
      <point x="364" y="161"/>
      <point x="364" y="201" type="curve" smooth="yes"/>
      <point x="364" y="251"/>
      <point x="332" y="286"/>
      <point x="288" y="286" type="curve"/>
      <point x="288" y="410" type="line"/>
      <point x="341" y="416"/>
      <point x="364" y="448"/>
      <point x="364" y="499" type="curve" smooth="yes"/>
      <point x="364" y="553"/>
      <point x="321" y="574"/>
      <point x="291" y="574" type="curve" smooth="yes"/>
      <point x="290" y="574"/>
      <point x="288" y="574"/>
      <point x="287" y="574" type="curve"/>
      <point x="287" y="698" type="line"/>
      <point x="421" y="695"/>
      <point x="488" y="582"/>
      <point x="488" y="508" type="curve" smooth="yes"/>
      <point x="488" y="403"/>
      <point x="440" y="353"/>
      <point x="426" y="350" type="curve"/>
      <point x="454" y="331"/>
      <point x="489" y="274"/>
      <point x="489" y="199" type="curve" smooth="yes"/>
      <point x="489" y="75"/>
      <point x="372" y="-0"/>
      <point x="292" y="-0" type="curve" smooth="yes"/>
      <point x="291" y="-0"/>
      <point x="291" y="-0"/>
      <point x="290" y="0" type="curve"/>
    </contour>
    <contour>
      <point x="167" y="160" type="line"/>
      <point x="181" y="139"/>
      <point x="201" y="127"/>
      <point x="230" y="125" type="curve"/>
      <point x="230" y="-1" type="line"/>
      <point x="152" y="-1"/>
      <point x="94" y="41"/>
      <point x="61" y="97" type="curve"/>
    </contour>
  </outline>
</glyph>
<glyph name="four" format="1">
  <advance width="483"/>
  <unicode hex="0034"/>
  <outline>
    <contour>
      <point x="216" y="272" type="line"/>
      <point x="216" y="145" type="line"/>
      <point x="26" y="145" type="line"/>
      <point x="26" y="272" type="line"/>
      <point x="216" y="598" type="line"/>
      <point x="216" y="351" type="line"/>
      <point x="170" y="272" type="line"/>
    </contour>
    <contour>
      <point x="457" y="272" type="line"/>
      <point x="457" y="145" type="line"/>
      <point x="403" y="145" type="line"/>
      <point x="403" y="0" type="line"/>
      <point x="273" y="0" type="line"/>
      <point x="273" y="701" type="line"/>
      <point x="403" y="701" type="line"/>
      <point x="403" y="272" type="line"/>
    </contour>
  </outline>
</glyph>
<glyph name="less" format="1">
  <advance width="414"/>
  <unicode hex="003C"/>
  <outline>
    <contour>
      <point x="384" y="500" type="line"/>
      <point x="384" y="370" type="line"/>
      <point x="208" y="292" type="line"/>
      <point x="384" y="206" type="line"/>
      <point x="384" y="79" type="line"/>
      <point x="30" y="258" type="line"/>
      <point x="30" y="322" type="line"/>
    </contour>
  </outline>
</glyph>
<glyph name="greater" format="1">
  <advance width="414"/>
  <unicode hex="003E"/>
  <outline>
    <contour>
      <point x="30" y="500" type="line"/>
      <point x="384" y="322" type="line"/>
      <point x="384" y="258" type="line"/>
      <point x="30" y="79" type="line"/>
      <point x="30" y="206" type="line"/>
      <point x="206" y="292" type="line"/>
      <point x="30" y="370" type="line"/>
    </contour>
  </outline>
</glyph>
<glyph name="question" format="1">
  <advance width="460"/>
  <unicode hex="003F"/>
  <outline>
    <contour>
      <point x="121.537" y="53.3096" type="curve" smooth="yes"/>
      <point x="121.537" y="95.3945"/>
      <point x="154.763" y="128.62"/>
      <point x="196.848" y="128.62" type="curve" smooth="yes"/>
      <point x="238.933" y="128.62"/>
      <point x="272.157" y="95.3945"/>
      <point x="272.157" y="53.3096" type="curve" smooth="yes"/>
      <point x="272.157" y="11.2246"/>
      <point x="238.933" y="-22"/>
      <point x="196.848" y="-22" type="curve" smooth="yes"/>
      <point x="154.763" y="-22"/>
      <point x="121.537" y="11.2246"/>
    </contour>
    <contour>
      <point x="112" y="526" type="curve"/>
      <point x="30" y="611" type="line"/>
      <point x="60" y="649"/>
      <point x="110" y="703"/>
      <point x="218" y="703" type="curve" smooth="yes"/>
      <point x="346.123" y="703"/>
      <point x="426.155" y="620.463"/>
      <point x="430" y="491" type="curve" smooth="yes"/>
      <point x="436" y="288.949"/>
      <point x="263.382" y="276"/>
      <point x="263" y="276" type="curve"/>
      <point x="263" y="166" type="line"/>
      <point x="134" y="166" type="line"/>
      <point x="134" y="386" type="line"/>
      <point x="250.979" y="388.315"/>
      <point x="302" y="400.443"/>
      <point x="302" y="493" type="curve" smooth="yes"/>
      <point x="302" y="545.288"/>
      <point x="257.296" y="575.178"/>
      <point x="210" y="575.283" type="curve" smooth="yes"/>
      <point x="166.955" y="575.38"/>
      <point x="133.365" y="554.439"/>
    </contour>
  </outline>
</glyph>
<glyph name="A" format="1">
  <advance width="516"/>
  <unicode hex="0041"/>
  <outline>
    <contour>
      <point x="155" y="582" type="line"/>
      <point x="170" y="582" type="line"/>
      <point x="230" y="302" type="line"/>
      <point x="164" y="0" type="line"/>
      <point x="26" y="0" type="line"/>
    </contour>
    <contour>
      <point x="200" y="699" type="line"/>
      <point x="339" y="699" type="line"/>
      <point x="490" y="0" type="line"/>
      <point x="353" y="0" type="line"/>
      <point x="333" y="85" type="line"/>
      <point x="239" y="85" type="line"/>
      <point x="269" y="223" type="line"/>
      <point x="305" y="223" type="line"/>
    </contour>
  </outline>
</glyph>
<glyph name="H" format="1">
  <advance width="458"/>
  <unicode hex="0048"/>
  <outline>
    <contour>
      <point x="202" y="421" type="line"/>
      <point x="202" y="283" type="line"/>
      <point x="173" y="283" type="line"/>
      <point x="173" y="0" type="line"/>
      <point x="32" y="0" type="line"/>
      <point x="32" y="700" type="line"/>
      <point x="173" y="700" type="line"/>
      <point x="173" y="421" type="line"/>
    </contour>
    <contour>
      <point x="285" y="700" type="line"/>
      <point x="426" y="700" type="line"/>
      <point x="426" y="0" type="line"/>
      <point x="285" y="0" type="line"/>
      <point x="285" y="283" type="line"/>
      <point x="256" y="283" type="line"/>
      <point x="256" y="421" type="line"/>
      <point x="285" y="421" type="line"/>
    </contour>
  </outline>
</glyph>
<glyph name="L" format="1">
  <advance width="428"/>
  <unicode hex="004C"/>
  <outline>
    <contour>
      <point x="402" y="139" type="line"/>
      <point x="402" y="0" type="line"/>
      <point x="26" y="0" type="line"/>
      <point x="26" y="700" type="line"/>
      <point x="167" y="700" type="line"/>
      <point x="167" y="139" type="line"/>
    </contour>
  </outline>
</glyph>
<glyph name="M" format="1">
  <advance width="676"/>
  <unicode hex="004D"/>
  <outline>
    <contour>
      <point x="32" y="0" type="line"/>
      <point x="32" y="444" type="line"/>
      <point x="41" y="444" type="line"/>
      <point x="173" y="127" type="line"/>
      <point x="173" y="0" type="line"/>
    </contour>
    <contour>
      <point x="32" y="700" type="line"/>
      <point x="142" y="700" type="line"/>
      <point x="333" y="237" type="line"/>
      <point x="439" y="476" type="line"/>
      <point x="449" y="476" type="line"/>
      <point x="449" y="151" type="line"/>
      <point x="382" y="0" type="line"/>
      <point x="285" y="0" type="line"/>
      <point x="32" y="608" type="line"/>
    </contour>
    <contour>
      <point x="503" y="700" type="line"/>
      <point x="644" y="700" type="line"/>
      <point x="644" y="0" type="line"/>
      <point x="503" y="0" type="line"/>
    </contour>
  </outline>
</glyph>
<glyph name="O" format="1">
  <advance width="508"/>
  <unicode hex="004F"/>
  <outline>
    <contour>
      <point x="226" y="-5" type="line"/>
      <point x="166" y="-5"/>
      <point x="30" y="51"/>
      <point x="30" y="195" type="curve" smooth="yes"/>
      <point x="30" y="524" type="line" smooth="yes"/>
      <point x="30" y="584"/>
      <point x="95" y="705"/>
      <point x="227" y="705" type="curve"/>
      <point x="227" y="564" type="line"/>
      <point x="181" y="563"/>
      <point x="171" y="513"/>
      <point x="171" y="508" type="curve" smooth="yes"/>
      <point x="171" y="195" type="line" smooth="yes"/>
      <point x="171" y="149"/>
      <point x="221" y="137"/>
      <point x="226" y="137" type="curve"/>
    </contour>
    <contour>
      <point x="281" y="-5" type="curve"/>
      <point x="281" y="137" type="line"/>
      <point x="286" y="137"/>
      <point x="336" y="149"/>
      <point x="337" y="195" type="curve" smooth="yes"/>
      <point x="337" y="508" type="line" smooth="yes"/>
      <point x="337" y="513"/>
      <point x="327" y="563"/>
      <point x="281" y="564" type="curve"/>
      <point x="281" y="705" type="line"/>
      <point x="412" y="705"/>
      <point x="478" y="583"/>
      <point x="478" y="524" type="curve" smooth="yes"/>
      <point x="478" y="195" type="line" smooth="yes"/>
      <point x="478" y="51"/>
      <point x="341" y="-5"/>
    </contour>
  </outline>
</glyph>
<glyph name="P" format="1">
  <advance width="474"/>
  <unicode hex="0050"/>
  <outline>
    <contour>
      <point x="221" y="457" type="line"/>
      <point x="254" y="457" type="line" smooth="yes"/>
      <point x="261" y="457"/>
      <point x="305" y="458"/>
      <point x="305" y="508" type="curve" smooth="yes"/>
      <point x="305" y="559"/>
      <point x="263" y="561"/>
      <point x="254" y="561" type="curve" smooth="yes"/>
      <point x="221" y="561" type="line"/>
      <point x="221" y="700" type="line"/>
      <point x="402" y="700"/>
      <point x="448" y="626"/>
      <point x="448" y="512" type="curve" smooth="yes"/>
      <point x="448" y="369"/>
      <point x="378" y="318"/>
      <point x="221" y="318" type="curve"/>
    </contour>
    <contour>
      <point x="26" y="700" type="line"/>
      <point x="167" y="700" type="line"/>
      <point x="167" y="0" type="line"/>
      <point x="26" y="0" type="line"/>
    </contour>
  </outline>
</glyph>
<glyph name="W" format="1">
  <advance width="725"/>
  <unicode hex="0057"/>
  <outline>
    <contour>
      <point x="26" y="700" type="line"/>
      <point x="170" y="700" type="line"/>
      <point x="328" y="158" type="line"/>
      <point x="276" y="0" type="line"/>
      <point x="229" y="0" type="line"/>
    </contour>
    <contour>
      <point x="239" y="700" type="line"/>
      <point x="383" y="700" type="line"/>
      <point x="541" y="158" type="line"/>
      <point x="489" y="0" type="line"/>
      <point x="442" y="0" type="line"/>
    </contour>
    <contour>
      <point x="699" y="700" type="line"/>
      <point x="576" y="290" type="line"/>
      <point x="566" y="290" type="line"/>
      <point x="500" y="514" type="line"/>
      <point x="555" y="700" type="line"/>
    </contour>
  </outline>
</glyph>
<glyph name="Y" format="1">
  <advance width="479"/>
  <unicode hex="0059"/>
  <outline>
    <contour>
      <point x="26" y="700" type="line"/>
      <point x="173" y="700" type="line"/>
      <point x="303" y="253" type="line"/>
      <point x="303" y="0" type="line"/>
      <point x="157" y="0" type="line"/>
      <point x="157" y="252" type="line"/>
    </contour>
    <contour>
      <point x="269" y="565" type="line"/>
      <point x="308" y="700" type="line"/>
      <point x="453" y="700" type="line"/>
      <point x="345" y="312" type="line"/>
    </contour>
  </outline>
</glyph>
<glyph name="bracketleft" format="1">
  <advance width="258"/>
  <unicode hex="005B"/>
  <outline>
    <contour>
      <point x="243.998" y="739" type="line"/>
      <point x="243.998" y="629" type="line"/>
      <point x="182.998" y="629" type="line"/>
      <point x="179.998" y="74" type="line"/>
      <point x="243.998" y="74" type="line"/>
      <point x="243.998" y="-36" type="line"/>
      <point x="49.998" y="-36" type="line"/>
      <point x="49.998" y="739" type="line"/>
    </contour>
  </outline>
</glyph>
<glyph name="backslash" format="1">
  <advance width="402"/>
  <unicode hex="005C"/>
  <outline>
    <contour>
      <point x="351" y="-23" type="line"/>
      <point x="224" y="-23" type="line"/>
      <point x="50" y="716" type="line"/>
      <point x="176" y="716" type="line"/>
    </contour>
  </outline>
</glyph>
<glyph name="grave" format="1">
  <advance width="263"/>
  <unicode hex="0060"/>
  <outline>
    <contour>
      <point x="122" y="605" type="line"/>
      <point x="49" y="757" type="line"/>
      <point x="176" y="757" type="line"/>
      <point x="213" y="605" type="line"/>
    </contour>
  </outline>
</glyph>
<glyph name="d" format="1">
  <advance width="414"/>
  <unicode hex="0064"/>
  <outline>
    <contour>
      <point x="180" y="516" type="curve" smooth="yes"/>
      <point x="210" y="516" type="line"/>
      <point x="210" y="398" type="line"/>
      <point x="180" y="398" type="line"/>
      <point x="153" y="397"/>
      <point x="148" y="375"/>
      <point x="148" y="373" type="curve" smooth="yes"/>
      <point x="148" y="143" type="line"/>
      <point x="148" y="141"/>
      <point x="154" y="118"/>
      <point x="182" y="118" type="curve" smooth="yes"/>
      <point x="210" y="118" type="line"/>
      <point x="210" y="0" type="line"/>
      <point x="182" y="0" type="line" smooth="yes"/>
      <point x="78" y="0"/>
      <point x="30" y="97"/>
      <point x="30" y="141" type="curve" smooth="yes"/>
      <point x="30" y="377" type="line"/>
      <point x="31" y="422"/>
      <point x="79" y="516"/>
    </contour>
    <contour>
      <point x="384" y="0" type="line"/>
      <point x="258" y="0" type="line"/>
      <point x="258" y="698" type="line"/>
      <point x="384" y="698" type="line"/>
    </contour>
  </outline>
</glyph>
<glyph name="e" format="1">
  <advance width="424"/>
  <unicode hex="0065"/>
  <outline>
    <contour>
      <point x="239.533" y="402.396" type="curve" smooth="yes"/>
      <point x="236.458" y="402.319" type="line"/>
      <point x="236.458" y="516" type="line"/>
      <point x="241.958" y="516" type="line" smooth="yes"/>
      <point x="311.799" y="516"/>
      <point x="397.458" y="450.34"/>
      <point x="397.458" y="377.959" type="curve" smooth="yes"/>
      <point x="397.458" y="207.5" type="line"/>
      <point x="148.458" y="207.5" type="line"/>
      <point x="148.458" y="140.803" type="line" smooth="yes"/>
      <point x="148.458" y="137.75"/>
      <point x="155.411" y="108.976"/>
      <point x="183.129" y="108.132" type="curve" smooth="yes"/>
      <point x="188.458" y="107.969" type="line"/>
      <point x="188.458" y="0" type="line"/>
      <point x="182.958" y="0" type="line" smooth="yes"/>
      <point x="79.1152" y="0"/>
      <point x="26.458" y="96.8672"/>
      <point x="26.458" y="141.496" type="curve" smooth="yes"/>
      <point x="26.458" y="376.524" type="line"/>
      <point x="27.5176" y="421.155"/>
      <point x="80.1152" y="516"/>
      <point x="181.958" y="516" type="curve" smooth="yes"/>
      <point x="187.458" y="516" type="line"/>
      <point x="187.458" y="400.401" type="line"/>
      <point x="184.458" y="400.401" type="line" smooth="yes"/>
      <point x="155.36" y="400.401"/>
      <point x="148.458" y="379.908"/>
      <point x="148.458" y="368.529" type="curve" smooth="yes"/>
      <point x="148.458" y="323.5" type="line"/>
      <point x="283.458" y="323.5" type="line"/>
      <point x="283.458" y="368.733" type="line" smooth="yes"/>
      <point x="283.458" y="395.277"/>
      <point x="259.698" y="402.892"/>
    </contour>
    <contour>
      <point x="236.458" y="0" type="line"/>
      <point x="236.458" y="110.725" type="line"/>
      <point x="241.676" y="110.993" type="line" smooth="yes"/>
      <point x="272.341" y="112.571"/>
      <point x="294.17" y="132.319"/>
      <point x="298.314" y="153.104" type="curve" smooth="yes"/>
      <point x="299.001" y="156.543" type="line"/>
      <point x="398" y="120.118" type="line"/>
      <point x="397.374" y="117.521" type="line" smooth="yes"/>
      <point x="382.007" y="53.7734"/>
      <point x="311.526" y="0"/>
      <point x="241.958" y="0" type="curve" smooth="yes"/>
    </contour>
  </outline>
</glyph>
<glyph name="g" format="1">
  <advance width="415"/>
  <unicode hex="0067"/>
  <outline>
    <contour>
      <point x="236.496" y="-181" type="curve"/>
      <point x="26.1748" y="-181" type="line"/>
      <point x="53.6465" y="-69" type="line"/>
      <point x="234.323" y="-69" type="line"/>
      <point x="265.767" y="-68.0674"/>
      <point x="272" y="-42.7578"/>
      <point x="272" y="-40" type="curve" smooth="yes"/>
      <point x="272" y="3.19727" type="line"/>
      <point x="260.445" y="0.62793"/>
      <point x="247.924" y="-1"/>
      <point x="234.373" y="-1" type="curve" smooth="yes"/>
      <point x="231.211" y="-1" type="line"/>
      <point x="231.211" y="109.271" type="line"/>
      <point x="234.274" y="109.359" type="line" smooth="yes"/>
      <point x="265.722" y="110.278"/>
      <point x="272" y="136.122"/>
      <point x="272" y="138.922" type="curve" smooth="yes"/>
      <point x="272" y="374.425" type="line" smooth="yes"/>
      <point x="272" y="377.236"/>
      <point x="265.752" y="403"/>
      <point x="234.373" y="403" type="curve" smooth="yes"/>
      <point x="231.211" y="403" type="line"/>
      <point x="231.211" y="516" type="line"/>
      <point x="234.373" y="516" type="line" smooth="yes"/>
      <point x="247.85" y="516"/>
      <point x="260.69" y="514.224"/>
      <point x="272" y="511.085" type="curve"/>
      <point x="272" y="516" type="line"/>
      <point x="389" y="516" type="line"/>
      <point x="389" y="-40" type="line" smooth="yes"/>
      <point x="389" y="-83.4199"/>
      <point x="339.116" y="-179.979"/>
    </contour>
    <contour>
      <point x="189.05" y="516" type="curve" smooth="yes"/>
      <point x="192.212" y="516" type="line"/>
      <point x="192.212" y="403" type="line"/>
      <point x="189.05" y="403" type="line" smooth="yes"/>
      <point x="156.555" y="403"/>
      <point x="150.051" y="377.34"/>
      <point x="150.051" y="374.586" type="curve" smooth="yes"/>
      <point x="150.051" y="140.414" type="line" smooth="yes"/>
      <point x="150.051" y="137.769"/>
      <point x="157.59" y="112"/>
      <point x="189.05" y="112" type="curve" smooth="yes"/>
      <point x="192.212" y="112" type="line"/>
      <point x="192.212" y="-1" type="line"/>
      <point x="189.05" y="-1" type="line" smooth="yes"/>
      <point x="83.8682" y="-1"/>
      <point x="35" y="96.5059"/>
      <point x="35" y="139.371" type="curve" smooth="yes"/>
      <point x="35" y="377.641" type="line"/>
      <point x="36.0312" y="421.508"/>
      <point x="84.8994" y="516"/>
    </contour>
  </outline>
</glyph>
<glyph name="h" format="1">
  <advance width="421"/>
  <unicode hex="0068"/>
  <outline>
    <contour>
      <point x="144.621" y="1.18457" type="line"/>
      <point x="29.6211" y="1.18457" type="line"/>
      <point x="29.6211" y="698" type="line"/>
      <point x="144.397" y="698" type="line"/>
      <point x="144.397" y="505.36" type="line"/>
      <point x="147.053" y="506.074" type="line" smooth="yes"/>
      <point x="158.679" y="509.052"/>
      <point x="175.752" y="510.741"/>
      <point x="189.94" y="511.146" type="curve" smooth="yes"/>
      <point x="193.188" y="511.239" type="line"/>
      <point x="193.188" y="399.129" type="line"/>
      <point x="190.313" y="398.89" type="line" smooth="yes"/>
      <point x="158.321" y="396.229"/>
      <point x="144.621" y="370.065"/>
      <point x="144.621" y="365.062" type="curve" smooth="yes"/>
    </contour>
    <contour>
      <point x="237.972" y="511.116" type="line"/>
      <point x="241.244" y="510.999" type="line" smooth="yes"/>
      <point x="338.147" y="507.415"/>
      <point x="395" y="443.433"/>
      <point x="395" y="373.819" type="curve" smooth="yes"/>
      <point x="395" y="1.04688" type="line"/>
      <point x="281" y="1.04688" type="line"/>
      <point x="281" y="364.924" type="line" smooth="yes"/>
      <point x="281" y="369.258"/>
      <point x="274.38" y="395.957"/>
      <point x="240.847" y="398.754" type="curve" smooth="yes"/>
      <point x="237.972" y="398.993" type="line"/>
    </contour>
  </outline>
</glyph>
<glyph name="j" format="1">
  <advance width="194"/>
  <unicode hex="006A"/>
  <outline>
    <contour>
      <point x="158.784" y="-37.5" type="line" smooth="yes"/>
      <point x="158.784" y="-84.9834"/>
      <point x="109.153" y="-181"/>
      <point x="7.28418" y="-181" type="curve" smooth="yes"/>
      <point x="-50" y="-181" type="line"/>
      <point x="-22.5947" y="-64" type="line"/>
      <point x="4.19824" y="-64" type="line"/>
      <point x="32.084" y="-63.1289"/>
      <point x="36.7842" y="-39.5723"/>
      <point x="36.7842" y="-37.5" type="curve" smooth="yes"/>
      <point x="36.7842" y="516" type="line"/>
      <point x="158.784" y="516" type="line"/>
    </contour>
    <contour>
      <point x="170.109" y="628.5" type="curve" smooth="yes"/>
      <point x="170.109" y="588.624"/>
      <point x="137.16" y="555.675"/>
      <point x="97.2842" y="555.675" type="curve" smooth="yes"/>
      <point x="57.4072" y="555.675"/>
      <point x="24.459" y="588.624"/>
      <point x="24.459" y="628.5" type="curve" smooth="yes"/>
      <point x="24.459" y="668.376"/>
      <point x="57.4072" y="701.325"/>
      <point x="97.2842" y="701.325" type="curve" smooth="yes"/>
      <point x="137.16" y="701.325"/>
      <point x="170.109" y="668.376"/>
    </contour>
  </outline>
</glyph>
<glyph name="m" format="1">
  <advance width="684"/>
  <unicode hex="006D"/>
  <outline>
    <contour>
      <point x="154" y="372" type="curve"/>
      <point x="154" y="0" type="line"/>
      <point x="30" y="0" type="line"/>
      <point x="30" y="377" type="line" smooth="yes"/>
      <point x="30" y="425"/>
      <point x="84" y="519"/>
      <point x="189" y="519" type="curve" smooth="yes"/>
      <point x="195" y="519" type="line"/>
      <point x="195" y="398" type="line"/>
      <point x="189" y="398" type="line" smooth="yes"/>
      <point x="159" y="398"/>
      <point x="154" y="374"/>
    </contour>
    <contour>
      <point x="530" y="372" type="line"/>
      <point x="530" y="375"/>
      <point x="524" y="398"/>
      <point x="494" y="398" type="curve" smooth="yes"/>
      <point x="488" y="398" type="line"/>
      <point x="488" y="519" type="line"/>
      <point x="494" y="519" type="line" smooth="yes"/>
      <point x="600" y="519"/>
      <point x="654" y="422"/>
      <point x="654" y="377" type="curve" smooth="yes"/>
      <point x="654" y="0" type="line"/>
      <point x="530" y="0" type="line"/>
    </contour>
    <contour>
      <point x="280" y="0" type="line"/>
      <point x="280" y="372" type="line" smooth="yes"/>
      <point x="280" y="375"/>
      <point x="273" y="398"/>
      <point x="243" y="398" type="curve" smooth="yes"/>
      <point x="237" y="398" type="line"/>
      <point x="237" y="519" type="line"/>
      <point x="243" y="519" type="line" smooth="yes"/>
      <point x="285" y="519"/>
      <point x="317" y="505"/>
      <point x="342" y="486" type="curve"/>
      <point x="367" y="506"/>
      <point x="399" y="519"/>
      <point x="441" y="519" type="curve" smooth="yes"/>
      <point x="447" y="519" type="line"/>
      <point x="447" y="398" type="line"/>
      <point x="441" y="398" type="line" smooth="yes"/>
      <point x="410" y="398"/>
      <point x="404" y="374"/>
      <point x="404" y="372" type="curve"/>
      <point x="404" y="0" type="line"/>
    </contour>
  </outline>
</glyph>
<glyph name="r" format="1">
  <advance width="326"/>
  <unicode hex="0072"/>
  <outline>
    <contour>
      <point x="42" y="516" type="line"/>
      <point x="170" y="516" type="line"/>
      <point x="170" y="454" type="line"/>
      <point x="191" y="481"/>
      <point x="239" y="516"/>
      <point x="294" y="516" type="curve" smooth="yes"/>
      <point x="327" y="516" type="line"/>
      <point x="299" y="395" type="line"/>
      <point x="293" y="399" type="line"/>
      <point x="226" y="398"/>
      <point x="170" y="331"/>
      <point x="170" y="271" type="curve" smooth="yes"/>
      <point x="170" y="0" type="line"/>
      <point x="42" y="0" type="line"/>
    </contour>
  </outline>
</glyph>
<glyph name="v" format="1">
  <advance width="400"/>
  <unicode hex="0076"/>
  <outline>
    <contour>
      <point x="174" y="0" type="line"/>
      <point x="16" y="515" type="line"/>
      <point x="151" y="516" type="line"/>
      <point x="286" y="120" type="line"/>
      <point x="243" y="0" type="line"/>
    </contour>
    <contour>
      <point x="269" y="516" type="line"/>
      <point x="400" y="515" type="line"/>
      <point x="308" y="208" type="line"/>
      <point x="296" y="208" type="line"/>
      <point x="232" y="394" type="line"/>
    </contour>
  </outline>
</glyph>
<glyph name="HKD" format="1">
  <advance width="843"/>
  <unicode hex="5713"/>
  <outline>
    <contour>
      <point x="101" y="614" type="line"/>
      <point x="101" y="573" type="line"/>
      <point x="92" y="573" type="line"/>
      <point x="92" y="488" type="line"/>
      <point x="50" y="488" type="line"/>
      <point x="50" y="698" type="line"/>
      <point x="92" y="698" type="line"/>
      <point x="92" y="614" type="line"/>
    </contour>
    <contour>
      <point x="283" y="698" type="line"/>
      <point x="325" y="698" type="line"/>
      <point x="299" y="611" type="line"/>
      <point x="326" y="488" type="line"/>
      <point x="284" y="488" type="line"/>
      <point x="257" y="611" type="line"/>
    </contour>
    <contour>
      <point x="198" y="698" type="line"/>
      <point x="241" y="698" type="line"/>
      <point x="241" y="488" type="line"/>
      <point x="198" y="488" type="line"/>
    </contour>
    <contour>
      <point x="126" y="698" type="line"/>
      <point x="169" y="698" type="line"/>
      <point x="169" y="488" type="line"/>
      <point x="126" y="488" type="line"/>
      <point x="126" y="573" type="line"/>
      <point x="117" y="573" type="line"/>
      <point x="117" y="614" type="line"/>
      <point x="126" y="614" type="line"/>
    </contour>
    <component base="dollar" xOffset="322"/>
  </outline>
</glyph>
<glyph name="NameMe.167" format="1">
  <advance width="699"/>
  <outline>
    <contour>
      <point x="108" y="698" type="curve"/>
      <point x="108" y="657" type="line"/>
      <point x="101" y="656"/>
      <point x="96" y="648"/>
      <point x="96" y="641" type="curve" smooth="yes"/>
      <point x="96" y="619"/>
      <point x="127" y="618"/>
      <point x="147" y="607" type="curve" smooth="yes"/>
      <point x="166" y="596"/>
      <point x="183" y="584"/>
      <point x="183" y="552" type="curve" smooth="yes"/>
      <point x="183" y="518"/>
      <point x="150" y="488"/>
      <point x="124" y="488" type="curve"/>
      <point x="124" y="527" type="line"/>
      <point x="132" y="530"/>
      <point x="143" y="539"/>
      <point x="143" y="551" type="curve" smooth="yes"/>
      <point x="143" y="575"/>
      <point x="111" y="578"/>
      <point x="93" y="587" type="curve" smooth="yes"/>
      <point x="72" y="597"/>
      <point x="56" y="609"/>
      <point x="56" y="640" type="curve" smooth="yes"/>
      <point x="56" y="684"/>
      <point x="92" y="698"/>
    </contour>
    <contour>
      <point x="124" y="698" type="line"/>
      <point x="156" y="698"/>
      <point x="178" y="664"/>
      <point x="178" y="646" type="curve"/>
      <point x="137" y="638" type="line"/>
      <point x="137" y="654"/>
      <point x="124" y="658"/>
      <point x="124" y="658" type="curve"/>
    </contour>
    <contour>
      <point x="108" y="488" type="line"/>
      <point x="74" y="488"/>
      <point x="50" y="522"/>
      <point x="50" y="543" type="curve"/>
      <point x="91" y="551" type="line"/>
      <point x="91" y="534"/>
      <point x="108" y="527"/>
      <point x="108" y="527" type="curve"/>
    </contour>
    <component base="dollar" xOffset="178"/>
  </outline>
</glyph>
<glyph name="quotedbl.alt" format="1">
  <advance width="359"/>
  <outline>
    <contour>
      <point x="153" y="476" type="line"/>
      <point x="26" y="476" type="line"/>
      <point x="26" y="700" type="line"/>
      <point x="153" y="700" type="line"/>
    </contour>
    <contour>
      <point x="333" y="476" type="line"/>
      <point x="206" y="476" type="line"/>
      <point x="206" y="700" type="line"/>
      <point x="333" y="700" type="line"/>
    </contour>
  </outline>
</glyph>
